PathFileType	4	(X/Y/Z)	C:\Users\u0088756\Documents\Phd\software\TrackingSim_Simtk\KSMarker.trc
DataRate	CameraRate	NumFrames	NumMarkers	Units	OrigDataRate	OrigDataStartFrame	OrigNumFrames
77.343750	77.343750	9	34	m	77.343750	34	100
Frame#	Times		RASI		LASI		CLAV		RSHO		LSHO		LKNE		LKNEmed		LTHI3		LANK		LANKmed		LTIB		LTIB2		LTIB3		LTOE		LHEE		LLatFoot		RPSI		LPSI		RASI		LASI		RKNE		RTHI		RTHI2		RTHI3		RANK		RANKmed		RTIB		RTIB2		RTIB3		RTOE		RHEE		RLatFoot		RPSI		LPSI
			X1	Y1	Z1	X2	Y2	Z2	X3	Y3	Z3	X4	Y4	Z4	X5	Y5	Z5	X6	Y6	Z6	X7	Y7	Z7	X8	Y8	Z8	X9	Y9	Z9	X10	Y10	Z10	X11	Y11	Z11	X12	Y12	Z12	X13	Y13	Z13	X14	Y14	Z14	X15	Y15	Z15	X16	Y16	Z16	X17	Y17	Z17	X18	Y18	Z18	X19	Y19	Z19	X20	Y20	Z20	X21	Y21	Z21	X22	Y22	Z22	X23	Y23	Z23	X24	Y24	Z24	X25	Y25	Z25	X26	Y26	Z26	X27	Y27	Z27	X28	Y28	Z28	X29	Y29	Z29	X30	Y30	Z30	X31	Y31	Z31	X32	Y32	Z32	X33	Y33	Z33	X34	Y34	Z34

34	0.42667	0.81103	0.98146	0.089452	0.79565	0.98303	-0.15244	0.77363	1.448	-0.052646	0.6774	1.501	0.15517	0.67719	1.4646	-0.27581	0.71018	0.46737	-0.16824	0.72483	0.46869	-0.052126	0.71237	0.6594	-0.22507	0.63214	0.064131	-0.11818	0.6801	0.081918	-0.031517	0.68273	0.27661	-0.17142	0.62464	0.27604	-0.17087	0.65593	0.22834	-0.166	0.80594	0.026551	-0.099424	0.57285	0.016929	-0.048561	0.70412	-0.018447	-0.14966	0.56501	1.0019	0.012632	0.55429	1.0088	-0.054529	0.81103	0.98146	0.089452	0.79565	0.98303	-0.15244	0.8962	0.52385	0.12101	0.83846	0.76626	0.16544	0.79091	0.72769	0.17003	0.83699	0.7142	0.16404	0.64734	0.17409	0.10698	0.67612	0.17449	0.013512	0.77267	0.34555	0.14008	0.72618	0.3724	0.14133	0.72531	0.31741	0.13794	0.77279	0.057475	0.05653	0.564	0.17005	0.052059	0.68439	0.062922	0.13216	0.56501	1.0019	0.012632	0.55429	1.0088	-0.054529
35	0.4396	0.82288	0.98154	0.088075	0.80578	0.98278	-0.1537	0.78514	1.4479	-0.053447	0.68953	1.5011	0.1546	0.68813	1.4646	-0.27636	0.71148	0.46666	-0.16772	0.72638	0.46791	-0.051629	0.71757	0.65848	-0.22496	0.63163	0.063987	-0.118	0.67991	0.081411	-0.031434	0.68324	0.27625	-0.17111	0.62514	0.276	-0.17041	0.65619	0.22812	-0.16568	0.80538	0.026027	-0.099882	0.57243	0.016716	-0.048278	0.70331	-0.018657	-0.14989	0.57633	1.0021	0.012986	0.56514	1.0089	-0.054107	0.82288	0.98154	0.088075	0.80578	0.98278	-0.1537	0.91094	0.52539	0.11837	0.85158	0.76722	0.16384	0.80435	0.72827	0.16859	0.8505	0.71515	0.1623	0.68353	0.1624	0.10513	0.71171	0.16464	0.011507	0.79862	0.34097	0.13784	0.75062	0.36501	0.13939	0.753	0.31007	0.1359	0.81665	0.055104	0.054212	0.60027	0.15234	0.050546	0.72841	0.054262	0.13022	0.57633	1.0021	0.012985	0.56514	1.0089	-0.054107
36	0.45253	0.83475	0.98138	0.086833	0.81608	0.98238	-0.15483	0.79681	1.4475	-0.054204	0.70189	1.501	0.15412	0.69916	1.4643	-0.27683	0.71265	0.4659	-0.16705	0.72781	0.46709	-0.051	0.72276	0.65741	-0.22475	0.63108	0.063809	-0.11767	0.67968	0.080872	-0.031217	0.68366	0.27586	-0.17067	0.62556	0.27592	-0.16982	0.65637	0.22787	-0.16522	0.80477	0.025546	-0.10024	0.57199	0.01643	-0.047848	0.70246	-0.018863	-0.15001	0.58774	1.002	0.013329	0.57611	1.0087	-0.053696	0.83475	0.98138	0.086833	0.81608	0.98238	-0.15483	0.9246	0.52604	0.11579	0.86445	0.76749	0.16222	0.81743	0.72832	0.16717	0.8636	0.71542	0.16055	0.72086	0.15046	0.10347	0.74825	0.15457	0.0096808	0.8246	0.33593	0.13571	0.77519	0.35688	0.13759	0.78102	0.3022	0.13401	0.86117	0.053325	0.051959	0.63814	0.13418	0.049279	0.77361	0.046012	0.12841	0.58774	1.002	0.013329	0.57611	1.0087	-0.053696
37	0.46545	0.84663	0.98091	0.085727	0.82658	0.98181	-0.15582	0.8086	1.4469	-0.05493	0.71441	1.5005	0.15368	0.71027	1.4638	-0.27725	0.7138	0.46513	-0.16634	0.72924	0.46627	-0.050321	0.72799	0.65624	-0.22452	0.63053	0.063626	-0.1173	0.67946	0.080324	-0.030959	0.68408	0.27547	-0.17018	0.62598	0.27583	-0.16916	0.65655	0.22761	-0.16472	0.80418	0.025113	-0.10058	0.57158	0.016109	-0.047369	0.70164	-0.019045	-0.1501	0.59921	1.0016	0.013621	0.5872	1.0083	-0.05334	0.84663	0.98091	0.085727	0.82658	0.98181	-0.15582	0.93718	0.52579	0.11332	0.87705	0.76708	0.16055	0.83012	0.72784	0.16578	0.87625	0.71502	0.15882	0.75928	0.13858	0.10207	0.7857	0.14456	0.0080981	0.8506	0.33057	0.13376	0.79991	0.34817	0.13599	0.80936	0.294	0.13233	0.90615	0.052344	0.049812	0.6776	0.11601	0.04834	0.81983	0.038492	0.12676	0.59921	1.0016	0.013622	0.5872	1.0083	-0.05334
38	0.47838	0.8585	0.98004	0.084741	0.83728	0.98104	-0.15671	0.82045	1.446	-0.055608	0.72697	1.4998	0.15327	0.72148	1.463	-0.27764	0.7151	0.46436	-0.16565	0.73077	0.46544	-0.049661	0.73339	0.65497	-0.22433	0.63001	0.063475	-0.11697	0.67923	0.079797	-0.030722	0.68461	0.27508	-0.16972	0.62652	0.27576	-0.16857	0.65683	0.22737	-0.16425	0.8036	0.024703	-0.10089	0.57117	0.015819	-0.046955	0.70086	-0.019196	-0.1502	0.61075	1.0009	0.013847	0.59843	1.0077	-0.053052	0.8585	0.98004	0.084741	0.83728	0.98104	-0.15671	0.94871	0.52463	0.11103	0.88935	0.766	0.15886	0.8424	0.72683	0.16444	0.88845	0.71394	0.1571	0.7987	0.12717	0.10101	0.82393	0.13496	0.0068417	0.87655	0.3251	0.13207	0.82477	0.3391	0.13469	0.83798	0.28573	0.13094	0.95124	0.052248	0.047812	0.71853	0.098409	0.047823	0.86673	0.031984	0.12535	0.61075	1.0009	0.013847	0.59843	1.0077	-0.053052
39	0.49131	0.87039	0.97871	0.08387	0.84818	0.98011	-0.15749	0.83237	1.4449	-0.056206	0.7395	1.4988	0.1529	0.73284	1.4619	-0.27798	0.71666	0.46361	-0.165	0.73246	0.46463	-0.049031	0.73905	0.65362	-0.22418	0.62956	0.063373	-0.11669	0.679	0.079313	-0.030498	0.68534	0.27471	-0.1693	0.62726	0.27573	-0.16806	0.65729	0.22716	-0.16384	0.80307	0.024273	-0.10109	0.57075	0.015614	-0.046645	0.70014	-0.019331	-0.15028	0.62237	0.99996	0.014024	0.60978	1.0068	-0.052815	0.87039	0.97871	0.08387	0.84818	0.98011	-0.15749	0.95929	0.5226	0.10904	0.90137	0.76426	0.15718	0.8543	0.7253	0.16317	0.90023	0.7122	0.15546	0.83889	0.11666	0.10029	0.86276	0.12618	0.0059324	0.90241	0.31974	0.1307	0.84977	0.32994	0.13371	0.86679	0.27767	0.12987	0.9961	0.053073	0.045963	0.76063	0.082039	0.047733	0.91389	0.026739	0.12415	0.62237	0.99996	0.014023	0.60978	1.0068	-0.052815
40	0.50424	0.88232	0.97694	0.083139	0.85931	0.97905	-0.15814	0.8444	1.4434	-0.0567	0.75208	1.4976	0.1526	0.74437	1.4605	-0.27825	0.71846	0.46287	-0.16436	0.73428	0.46386	-0.048392	0.74499	0.65219	-0.22405	0.62925	0.063316	-0.11642	0.67883	0.078881	-0.030235	0.68629	0.27435	-0.16887	0.62821	0.27573	-0.16761	0.65795	0.22697	-0.16344	0.80263	0.023793	-0.1011	0.57036	0.015515	-0.04638	0.69954	-0.019473	-0.15027	0.6341	0.99865	0.01418	0.62129	1.0057	-0.052596	0.88232	0.97694	0.08314	0.85931	0.97905	-0.15814	0.96914	0.51983	0.10745	0.91312	0.76193	0.15564	0.86585	0.72328	0.16205	0.91164	0.70987	0.15402	0.87955	0.1075	0.099821	0.90197	0.11865	0.0052838	0.92808	0.31476	0.12964	0.87486	0.32104	0.13303	0.89566	0.27017	0.1291	1.0404	0.055026	0.044267	0.80355	0.067472	0.047888	0.96089	0.023061	0.1231	0.63409	0.99865	0.014181	0.62129	1.0057	-0.052595
41	0.51717	0.8943	0.97477	0.082585	0.87069	0.97785	-0.15863	0.85661	1.4417	-0.057099	0.76487	1.4961	0.1524	0.75606	1.4588	-0.27841	0.72045	0.46215	-0.16369	0.73627	0.46312	-0.047722	0.75114	0.65067	-0.22391	0.62909	0.063307	-0.11609	0.67879	0.078503	-0.029906	0.68742	0.27402	-0.16841	0.62936	0.27575	-0.16713	0.65879	0.22681	-0.163	0.80233	0.023291	-0.10099	0.57009	0.015509	-0.046075	0.69909	-0.019603	-0.15015	0.64593	0.99704	0.014328	0.63296	1.0044	-0.052388	0.8943	0.97476	0.082585	0.87069	0.97785	-0.15862	0.9785	0.51651	0.10639	0.92456	0.75911	0.15442	0.87704	0.72082	0.16118	0.92269	0.70706	0.15291	0.92026	0.10008	0.099414	0.94128	0.11279	0.0047508	0.95346	0.31039	0.12888	0.89993	0.31272	0.13256	0.92443	0.26352	0.12854	1.0841	0.058614	0.042802	0.8469	0.055033	0.047983	1.0074	0.021358	0.12214	0.64593	0.99704	0.014328	0.63296	1.0044	-0.052387
42	0.5301	0.90632	0.97224	0.082211	0.88234	0.97643	-0.15895	0.86905	1.4398	-0.057449	0.77801	1.4943	0.15232	0.76786	1.457	-0.27846	0.72269	0.46146	-0.16302	0.73854	0.46241	-0.047059	0.75746	0.64911	-0.22376	0.62904	0.063365	-0.11571	0.67888	0.078175	-0.029543	0.68874	0.27372	-0.16792	0.63069	0.27584	-0.16661	0.6598	0.2267	-0.16253	0.80213	0.022838	-0.10089	0.56993	0.01557	-0.045701	0.69871	-0.019671	-0.15001	0.65788	0.99527	0.014437	0.64482	1.0029	-0.052226	0.90631	0.97224	0.082212	0.88234	0.97643	-0.15895	0.98759	0.51287	0.10585	0.93566	0.75596	0.15364	0.88787	0.71805	0.1606	0.93338	0.70392	0.15222	0.96056	0.094672	0.098964	0.98034	0.10888	0.004248	0.97835	0.30685	0.12837	0.92481	0.30525	0.13219	0.95283	0.25798	0.1281	1.1267	0.064457	0.041757	0.89031	0.044798	0.047773	1.053	0.022052	0.12134	0.65788	0.99527	0.014438	0.64482	1.0029	-0.052225
